<?xml version="1.0" encoding="utf-8"?>
<!-- Generator: Adobe Illustrator 24.0.0, SVG Export Plug-In . SVG Version: 6.00 Build 0)  -->
<svg version="1.1" id="Layer_1" xmlns="http://www.w3.org/2000/svg" xmlns:xlink="http://www.w3.org/1999/xlink" x="0px" y="0px"
	 viewBox="0 0 50 50" style="enable-background:new 0 0 50 50;" xml:space="preserve">
<style type="text/css">
	.st0{fill:#FFFFFF;}
</style>
<g>
	<g>
		<g>
			<path class="st0" d="M25.1,16.7c-0.1,7.8,0,10.5,0,18.3c0,0.1,0.2,0.1,0.2,0c0-4.1,0-3,0-7.1c0-2,0-4,0-6.1c0-1,0-2.1,0-3.1
				c0-0.5,0-0.9,0-1.4c0-0.2,0-0.4,0-0.5c0-0.1-0.2-0.1-0.2,0c0,0,0,0,0,0c0,0.1,0.2,0.1,0.2,0c0,0,0,0,0,0c0-0.1-0.2-0.1-0.2,0
				c0,0.2,0,0.3,0,0.5c0,0.4,0,0.8,0,1.3c0,1,0,2.1,0,3.1c0,2.1,0,4.1,0,6.2c0,4.1,0,3,0,7.1c0,0.1,0.2,0.1,0.2,0
				c0-7.8,0.1-10.5,0-18.3C25.2,16.7,25.1,16.7,25.1,16.7L25.1,16.7z"/>
		</g>
		<g>
			<path class="st0" d="M25.2,35.1c0.3-0.3,0.3-0.8,0.4-1.2c0.2-0.6,0.3-1.3,0.7-1.9c0,0,0-0.1-0.1-0.1c-0.2,0-0.4,0-0.6,0
				c-0.1,0-0.3,0-0.4,0c-0.1,0-0.1,0.2,0,0.1c0.1,0,0.3,0,0.5,0c0.2,0,0.4,0,0.5,0c0,0,0-0.1-0.1-0.1c-0.3,0.5-0.4,1.1-0.6,1.6
				C25.4,34,25.4,34.6,25.2,35.1C25.1,35.1,25.2,35.1,25.2,35.1L25.2,35.1z"/>
		</g>
		<g>
			<path class="st0" d="M26.2,32c-0.3-0.1-0.6-0.1-0.9,0c0,0-0.1,0.1-0.1,0.1c0.1,0.2,0,0.5,0,0.7c0,0.3,0,0.6,0,1
				c0,0.3-0.2,0.8,0,1.1c0,0,0,0,0,0c0.1-0.2,0-0.4,0.1-0.6c0-0.2,0.1-0.5,0.1-0.7c0-0.5,0.1-1,0-1.5c0,0,0,0.1-0.1,0.1
				c0.3-0.1,0.5,0,0.8-0.1C26.2,32.1,26.2,32,26.2,32L26.2,32z"/>
		</g>
		<g>
			<path class="st0" d="M25.3,34.9c0.2-0.5,0.2-1,0.2-1.5c0-0.2,0-0.5,0-0.7c0-0.2,0.1-0.4,0.3-0.4c0.1,0,0.2,0,0.2-0.1
				c0,0-0.1-0.1-0.1-0.1c-0.2,0.3-0.3,0.7-0.4,1c-0.1,0.4-0.3,0.7-0.3,1.1c0,0,0,0,0.1,0c0.2-0.2,0.3-0.6,0.4-0.9
				c0.1-0.4,0.2-0.8,0.4-1.2c0-0.1-0.1-0.1-0.1-0.1c-0.2,0.1-0.4,0-0.5,0.2c-0.1,0.2-0.1,0.4-0.2,0.7c0,0.3,0,0.6,0,1
				C25.3,34.2,25.1,34.5,25.3,34.9C25.3,34.9,25.3,34.9,25.3,34.9L25.3,34.9z"/>
		</g>
		<g>
			<path class="st0" d="M25.3,34.1c0.1-0.3,0.2-0.5,0.2-0.8c0.1-0.3,0.2-0.6,0.3-0.9c0-0.1-0.1-0.2-0.1-0.1
				c-0.2,0.1-0.3,0.2-0.4,0.4c0.1,0,0.1,0.1,0.2,0.1c0.1-0.2,0.2-0.4,0.4-0.5c0.1-0.1,0.1-0.2-0.1-0.2c-0.2,0-0.3,0-0.5-0.1
				c0,0.1,0,0.2,0,0.2c0.1,0,0.1,0,0.2,0c0,0-0.1-0.1-0.1-0.1c0,0.5-0.1,1.1-0.2,1.7c0,0,0.1,0,0.1,0c0.2-0.5,0.4-1.1,0.3-1.7
				c0-0.1-0.1-0.1-0.1-0.1c0,0-0.1,0-0.1,0c-0.1,0-0.2,0.2,0,0.2c0.2,0.1,0.4,0.1,0.5,0.1c0-0.1,0-0.1-0.1-0.2
				c-0.2,0.1-0.4,0.4-0.5,0.6c0,0.1,0.1,0.2,0.2,0.1c0.1-0.1,0.2-0.3,0.4-0.4c-0.1,0-0.1-0.1-0.2-0.1c-0.1,0.3-0.2,0.5-0.3,0.8
				C25.4,33.5,25.4,33.8,25.3,34.1C25.3,34.1,25.3,34.2,25.3,34.1L25.3,34.1z"/>
		</g>
		<g>
			<path class="st0" d="M25.1,35.1c-0.3-0.3-0.3-0.8-0.4-1.2c-0.2-0.6-0.3-1.3-0.7-1.9c0,0,0-0.1,0.1-0.1c0.2,0,0.4,0,0.6,0
				c0.1,0,0.3,0,0.4,0c0.1,0,0.1,0.2,0,0.1c-0.1,0-0.3,0-0.5,0c-0.2,0-0.4,0-0.5,0c0,0,0-0.1,0.1-0.1c0.3,0.5,0.4,1.1,0.6,1.6
				C24.9,34,25,34.6,25.1,35.1C25.2,35.1,25.2,35.1,25.1,35.1L25.1,35.1z"/>
		</g>
		<g>
			<path class="st0" d="M24.2,32c0.3-0.1,0.6-0.1,0.9,0c0,0,0.1,0.1,0.1,0.1c-0.1,0.2,0,0.5,0,0.7c0,0.3,0,0.6,0,1
				c0,0.3,0.2,0.8,0,1.1c0,0,0,0,0,0c-0.1-0.2,0-0.4-0.1-0.6c0-0.2-0.1-0.5-0.1-0.7c0-0.5-0.1-1,0-1.5c0,0,0,0.1,0.1,0.1
				c-0.3-0.1-0.5,0-0.8-0.1C24.1,32.1,24.1,32,24.2,32L24.2,32z"/>
		</g>
		<g>
			<path class="st0" d="M25.1,34.9c-0.2-0.5-0.2-1-0.2-1.5c0-0.2,0-0.5,0-0.7c0-0.2-0.1-0.4-0.3-0.4c-0.1,0-0.2,0-0.2-0.1
				c0,0,0.1-0.1,0.1-0.1c0.2,0.3,0.3,0.7,0.4,1c0.1,0.4,0.3,0.7,0.3,1.1c0,0,0,0-0.1,0c-0.2-0.2-0.3-0.6-0.4-0.9
				c-0.1-0.4-0.2-0.8-0.4-1.2c0-0.1,0.1-0.1,0.1-0.1c0.2,0.1,0.4,0,0.5,0.2c0.1,0.2,0.1,0.4,0.2,0.7c0,0.3,0,0.6,0,1
				C25.1,34.2,25.2,34.5,25.1,34.9C25.1,34.9,25.1,34.9,25.1,34.9L25.1,34.9z"/>
		</g>
		<g>
			<path class="st0" d="M25,34.1c-0.1-0.3-0.2-0.5-0.2-0.8c-0.1-0.3-0.2-0.6-0.3-0.9c0-0.1,0.1-0.2,0.1-0.1c0.2,0.1,0.3,0.2,0.4,0.4
				c-0.1,0-0.1,0.1-0.2,0.1c-0.1-0.2-0.2-0.4-0.4-0.5c-0.1-0.1-0.1-0.2,0.1-0.2c0.2,0,0.3,0,0.5-0.1c0,0.1,0,0.2,0,0.2
				c-0.1,0-0.1,0-0.2,0c0,0,0.1-0.1,0.1-0.1c0,0.5,0.1,1.1,0.2,1.7c0,0-0.1,0-0.1,0c-0.2-0.5-0.4-1.1-0.3-1.7c0-0.1,0.1-0.1,0.1-0.1
				c0,0,0.1,0,0.1,0c0.1,0,0.2,0.2,0,0.2c-0.2,0.1-0.4,0.1-0.5,0.1c0-0.1,0-0.1,0.1-0.2c0.2,0.1,0.4,0.4,0.5,0.6
				c0,0.1-0.1,0.2-0.2,0.1c-0.1-0.1-0.2-0.3-0.4-0.4c0.1,0,0.1-0.1,0.2-0.1c0.1,0.3,0.2,0.5,0.3,0.8C25,33.5,25,33.8,25,34.1
				C25,34.1,25,34.2,25,34.1L25,34.1z"/>
		</g>
	</g>
	<g>
		<path class="st0" d="M25.2,23.6c0.7-0.2,1.3-1.3,1.2-2c0,0,0-0.1-0.1,0c-0.4,0.1-0.6,0.4-0.8,0.7C25.3,22.6,25.1,23.1,25.2,23.6
			C25.1,23.7,25.2,23.7,25.2,23.6c0.1-0.1,0.1-0.3,0.1-0.5c0-0.2,0.2-0.5,0.3-0.7c0.2-0.3,0.4-0.7,0.8-0.8c0,0-0.1,0-0.1,0
			c0.1,0.4-0.1,0.8-0.3,1.1C25.8,23,25.5,23.2,25.2,23.6C25.2,23.5,25.2,23.6,25.2,23.6L25.2,23.6z"/>
	</g>
	<g>
		<path class="st0" d="M25.2,23.5c0.3-0.3,0.4-0.6,0.6-0.9c0.2-0.3,0.4-0.6,0.6-1c0,0,0-0.1-0.1-0.1c-0.3,0.2-0.4,0.5-0.6,0.8
			C25.6,22.7,25.4,23.1,25.2,23.5C25.2,23.5,25.2,23.5,25.2,23.5L25.2,23.5z"/>
	</g>
	<g>
		<path class="st0" d="M25.3,21.9c0.5-0.5,1.3-1.2,1.1-2c0,0,0-0.1-0.1,0c-0.4,0.1-0.6,0.4-0.8,0.7c-0.2,0.4-0.4,0.9-0.4,1.4
			C25.1,22,25.2,22,25.3,21.9c0.2-0.6,0.3-1.7,1.1-2c0,0-0.1,0-0.1,0c0.1,0.4-0.1,0.8-0.3,1.1C25.8,21.4,25.4,21.6,25.3,21.9
			C25.2,21.9,25.2,22,25.3,21.9L25.3,21.9z"/>
	</g>
	<g>
		<path class="st0" d="M25.3,21.9c0.2-0.3,0.4-0.6,0.6-0.9c0.2-0.3,0.4-0.6,0.6-1c0-0.1-0.1-0.1-0.1,0
			C25.9,20.6,25.5,21.2,25.3,21.9C25.2,21.9,25.2,21.9,25.3,21.9L25.3,21.9z"/>
	</g>
	<g>
		<path class="st0" d="M25.2,20.2c0.8-0.3,1.1-1.3,1.1-2c0,0,0-0.1-0.1-0.1c-0.3,0-0.5,0.3-0.7,0.6c-0.2,0.4-0.4,0.9-0.4,1.3
			c0,0,0,0.1,0.1,0c0.2-0.3,0.2-0.7,0.4-1c0.1-0.3,0.3-0.8,0.7-0.8c0,0-0.1-0.1-0.1-0.1c0,0.4-0.1,0.8-0.3,1.1
			C25.7,19.7,25.4,19.9,25.2,20.2C25.1,20.2,25.2,20.2,25.2,20.2L25.2,20.2z"/>
	</g>
	<g>
		<path class="st0" d="M25.2,20.1c0.2-0.3,0.4-0.6,0.5-0.9c0.2-0.3,0.4-0.6,0.5-0.9c0-0.1-0.1-0.1-0.1,0c-0.2,0.3-0.4,0.6-0.5,0.9
			C25.5,19.4,25.3,19.7,25.2,20.1C25.2,20.1,25.2,20.1,25.2,20.1L25.2,20.1z"/>
	</g>
	<g>
		<path class="st0" d="M25.2,18.4c0.4-0.1,0.6-0.5,0.7-0.8c0.2-0.4,0.3-0.8,0.2-1.2c0,0-0.1-0.1-0.1,0c-0.3,0.2-0.5,0.5-0.7,0.8
			c-0.1,0.3-0.3,0.8-0.3,1.1c0,0.1,0.1,0.1,0.1,0c0.1-0.3,0.1-0.6,0.2-0.9c0.1-0.4,0.3-0.7,0.6-0.9c0,0-0.1,0-0.1,0
			C26.1,16.9,25.7,18.1,25.2,18.4C25.1,18.3,25.1,18.4,25.2,18.4L25.2,18.4z"/>
	</g>
	<g>
		<path class="st0" d="M25.2,18.3c0.2-0.2,0.4-0.5,0.5-0.8c0.2-0.3,0.4-0.7,0.4-1c0,0,0-0.1-0.1,0c-0.2,0.2-0.3,0.6-0.4,0.9
			C25.5,17.6,25.3,17.9,25.2,18.3C25.1,18.3,25.2,18.3,25.2,18.3L25.2,18.3z"/>
	</g>
	<g>
		<path class="st0" d="M25.1,17.3c0.4-0.7,0.5-1.7,0-2.4c0,0-0.1,0-0.1,0C24.6,15.6,24.5,16.6,25.1,17.3
			C25.1,17.3,25.1,17.3,25.1,17.3c0-0.2-0.1-0.2-0.1-0.3c-0.1-0.2-0.2-0.5-0.2-0.8c0-0.4,0.1-0.8,0.3-1.2c0,0-0.1,0-0.1,0
			C25.6,15.6,25.4,16.6,25.1,17.3C25.1,17.3,25.1,17.3,25.1,17.3L25.1,17.3z"/>
	</g>
	<g>
		<path class="st0" d="M25.1,17.1c0.1-0.4,0-0.9,0.1-1.3c0-0.3,0.1-0.6,0-0.9c0-0.1-0.1,0-0.1,0c0.1,0.3,0,0.6,0,0.9
			C25,16.3,25,16.7,25.1,17.1C25.1,17.2,25.1,17.2,25.1,17.1L25.1,17.1z"/>
	</g>
	<g>
		<path class="st0" d="M25.1,18.2c0.2-0.3-0.1-0.7-0.2-0.9c-0.2-0.3-0.5-0.6-0.9-0.7c-0.1,0-0.1,0-0.1,0.1c0,0.4,0.1,0.7,0.4,1
			c0.2,0.3,0.6,0.6,0.9,0.7c0.1,0,0.1-0.1,0-0.1c-0.5-0.4-1.2-0.9-1.2-1.6c0,0-0.1,0-0.1,0.1C24.4,16.9,25.1,17.6,25.1,18.2
			C25,18.2,25.1,18.2,25.1,18.2L25.1,18.2z"/>
	</g>
	<g>
		<path class="st0" d="M25.2,18.3c-0.2-0.3-0.4-0.7-0.6-1c-0.1-0.1-0.3-0.3-0.4-0.4c0-0.1-0.1-0.1-0.2-0.2c0,0-0.1,0-0.1,0.1
			c0.2,0.2,0.3,0.4,0.5,0.6C24.7,17.7,24.9,18,25.2,18.3C25.1,18.3,25.2,18.3,25.2,18.3L25.2,18.3z"/>
	</g>
	<g>
		<path class="st0" d="M25.2,20c-0.2-0.6-0.6-1.4-1.4-1.5c0,0-0.1,0-0.1,0.1c0,0.4,0.2,0.7,0.4,0.9c0.3,0.3,0.6,0.6,1,0.8
			c0,0,0.1-0.1,0-0.1c-0.5-0.4-1.4-0.9-1.4-1.6c0,0-0.1,0-0.1,0.1c0.3,0.1,0.6,0.3,0.9,0.6C24.9,19.5,24.9,19.7,25.2,20
			C25.1,20,25.2,20,25.2,20L25.2,20z"/>
	</g>
	<g>
		<path class="st0" d="M25.2,20.1c-0.2-0.3-0.4-0.5-0.6-0.7c-0.2-0.2-0.5-0.5-0.7-0.7c0,0-0.1,0-0.1,0.1c0.2,0.3,0.4,0.5,0.7,0.7
			C24.7,19.6,24.9,19.8,25.2,20.1C25.2,20.1,25.2,20.1,25.2,20.1L25.2,20.1z"/>
	</g>
	<g>
		<path class="st0" d="M25.2,21.9c-0.2-0.7-0.7-1.4-1.4-1.6c0,0-0.1,0-0.1,0c-0.2,0.3,0,0.6,0.2,0.9c0.3,0.4,0.7,0.7,1.1,0.8
			C25.2,22.1,25.2,22,25.2,21.9c-0.1,0-0.2,0-0.3-0.1c-0.2-0.1-0.4-0.3-0.5-0.4c-0.2-0.2-0.6-0.5-0.5-0.9c0-0.2,0.3,0.1,0.4,0.1
			c0.2,0.1,0.3,0.3,0.4,0.4C24.8,21.3,24.9,21.6,25.2,21.9C25.1,21.9,25.2,21.9,25.2,21.9L25.2,21.9z"/>
	</g>
	<g>
		<path class="st0" d="M25.1,21.9c-0.4-0.6-0.8-1.1-1.3-1.5c-0.1-0.1-0.2,0-0.1,0.1C24.2,20.9,24.6,21.5,25.1,21.9
			C25.1,22,25.2,22,25.1,21.9L25.1,21.9z"/>
	</g>
	<g>
		<path class="st0" d="M25.1,23.5c0-0.5-0.5-0.8-0.8-1.1c-0.1-0.1-0.6-0.4-0.7-0.1c-0.1,0.4,0.4,0.7,0.6,1
			C24.4,23.4,24.9,23.9,25.1,23.5C25.2,23.5,25.1,23.4,25.1,23.5c-0.3,0.2-0.7-0.3-0.9-0.4C24.1,23,24,22.9,24,22.8
			c-0.1-0.1-0.5-0.6-0.2-0.5c0.2,0,0.4,0.2,0.6,0.4C24.7,22.9,24.9,23.1,25.1,23.5C25.1,23.5,25.1,23.5,25.1,23.5L25.1,23.5z"/>
	</g>
	<g>
		<path class="st0" d="M25.1,23.5c-0.3-0.6-1-0.9-1.5-1.3c-0.1-0.1-0.1,0.1-0.1,0.1c0.3,0.2,0.5,0.3,0.8,0.6
			C24.6,23.1,24.9,23.3,25.1,23.5C25.1,23.6,25.2,23.6,25.1,23.5L25.1,23.5z"/>
	</g>
</g>
</svg>
