<?xml version="1.0" encoding="utf-8"?>
<!-- Generator: Adobe Illustrator 24.0.0, SVG Export Plug-In . SVG Version: 6.00 Build 0)  -->
<svg version="1.1" id="Layer_1" xmlns="http://www.w3.org/2000/svg" xmlns:xlink="http://www.w3.org/1999/xlink" x="0px" y="0px"
	 viewBox="0 0 5.4 36.8" style="enable-background:new 0 0 5.4 36.8;" xml:space="preserve">
<style type="text/css">
	.st0{fill:#FFFFFF;}
</style>
<g>
	<g>
		<g>
			<path class="st0" d="M2.8,10.1c-0.1,7.8,0,10.5,0,18.3c0,0.1,0.2,0.1,0.2,0c0-4.1,0-3,0-7.1c0-2,0-4,0-6.1c0-1,0-2.1,0-3.1
				c0-0.5,0-0.9,0-1.4c0-0.2,0-0.4,0-0.5S2.8,10.1,2.8,10.1L2.8,10.1c0,0.2,0.2,0.2,0.2,0.1l0,0C3,10.1,2.8,10.1,2.8,10.1
				c0,0.3,0,0.4,0,0.6c0,0.4,0,0.8,0,1.3c0,1,0,2.1,0,3.1c0,2.1,0,4.1,0,6.2c0,4.1,0,3,0,7.1c0,0.1,0.2,0.1,0.2,0
				c0-7.8,0.1-10.5,0-18.3C2.9,10.1,2.8,10.1,2.8,10.1L2.8,10.1z"/>
		</g>
		<g>
			<path class="st0" d="M2.9,28.5c0.3-0.3,0.3-0.8,0.4-1.2C3.5,26.7,3.6,26,4,25.4c0,0,0-0.1-0.1-0.1c-0.2,0-0.4,0-0.6,0
				c-0.1,0-0.3,0-0.4,0s-0.1,0.2,0,0.1c0.1,0,0.3,0,0.5,0s0.4,0,0.5,0c0,0,0-0.1-0.1-0.1c-0.3,0.5-0.4,1.1-0.6,1.6
				C3.1,27.4,3.1,28,2.9,28.5C2.8,28.5,2.9,28.5,2.9,28.5L2.9,28.5z"/>
		</g>
		<g>
			<path class="st0" d="M3.9,25.4c-0.3-0.1-0.6-0.1-0.9,0l-0.1,0.1c0.1,0.2,0,0.5,0,0.7c0,0.3,0,0.6,0,1c0,0.3-0.2,0.8,0,1.1l0,0
				c0.1-0.2,0-0.4,0.1-0.6c0-0.2,0.1-0.5,0.1-0.7c0-0.5,0.1-1,0-1.5c0,0,0,0.1-0.1,0.1c0.3-0.1,0.5,0,0.8-0.1
				C3.9,25.5,3.9,25.4,3.9,25.4L3.9,25.4z"/>
		</g>
		<g>
			<path class="st0" d="M3,28.3c0.2-0.5,0.2-1,0.2-1.5c0-0.2,0-0.5,0-0.7s0.1-0.4,0.3-0.4c0.1,0,0.2,0,0.2-0.1l-0.1-0.1
				c-0.2,0.3-0.3,0.7-0.4,1c-0.1,0.4-0.3,0.7-0.3,1.1c0,0,0,0,0.1,0c0.2-0.2,0.3-0.6,0.4-0.9c0.1-0.4,0.2-0.8,0.4-1.2
				c0-0.1-0.1-0.1-0.1-0.1c-0.2,0.1-0.4,0-0.5,0.2C3.1,25.8,3.1,26,3,26.3c0,0.3,0,0.6,0,1C3,27.6,2.8,27.9,3,28.3L3,28.3L3,28.3z"
				/>
		</g>
		<g>
			<path class="st0" d="M3,27.5c0.1-0.3,0.2-0.5,0.2-0.8c0.1-0.3,0.2-0.6,0.3-0.9c0-0.1-0.1-0.2-0.1-0.1c-0.2,0.1-0.3,0.2-0.4,0.4
				c0.1,0,0.1,0.1,0.2,0.1c0.1-0.2,0.2-0.4,0.4-0.5c0.1-0.1,0.1-0.2-0.1-0.2s-0.3,0-0.5-0.1c0,0.1,0,0.2,0,0.2c0.1,0,0.1,0,0.2,0
				l-0.1-0.1c0,0.5-0.1,1.1-0.2,1.7H3c0.2-0.5,0.4-1.1,0.3-1.7c0-0.1-0.1-0.1-0.1-0.1H3.1c-0.1,0-0.2,0.2,0,0.2
				c0.2,0.1,0.4,0.1,0.5,0.1c0-0.1,0-0.1-0.1-0.2c-0.2,0.1-0.4,0.4-0.5,0.6c0,0.1,0.1,0.2,0.2,0.1c0.1-0.1,0.2-0.3,0.4-0.4
				c-0.1,0-0.1-0.1-0.2-0.1c-0.1,0.3-0.2,0.5-0.3,0.8C3.1,26.9,3.1,27.2,3,27.5C3,27.5,3,27.6,3,27.5L3,27.5z"/>
		</g>
		<g>
			<path class="st0" d="M2.8,28.5c-0.3-0.3-0.3-0.8-0.4-1.2c-0.2-0.6-0.3-1.3-0.7-1.9c0,0,0-0.1,0.1-0.1c0.2,0,0.4,0,0.6,0
				c0.1,0,0.3,0,0.4,0s0.1,0.2,0,0.1c-0.1,0-0.3,0-0.5,0s-0.4,0-0.5,0c0,0,0-0.1,0.1-0.1c0.3,0.5,0.4,1.1,0.6,1.6
				C2.6,27.4,2.7,28,2.8,28.5C2.9,28.5,2.9,28.5,2.8,28.5L2.8,28.5z"/>
		</g>
		<g>
			<path class="st0" d="M1.9,25.4c0.3-0.1,0.6-0.1,0.9,0l0.1,0.1c-0.1,0.2,0,0.5,0,0.7c0,0.3,0,0.6,0,1c0,0.3,0.2,0.8,0,1.1l0,0
				c-0.1-0.2,0-0.4-0.1-0.6c0-0.2-0.1-0.5-0.1-0.7c0-0.5-0.1-1,0-1.5c0,0,0,0.1,0.1,0.1c-0.3-0.1-0.5,0-0.8-0.1
				C1.8,25.5,1.8,25.4,1.9,25.4L1.9,25.4z"/>
		</g>
		<g>
			<path class="st0" d="M2.8,28.3c-0.2-0.5-0.2-1-0.2-1.5c0-0.2,0-0.5,0-0.7s-0.1-0.4-0.3-0.4c-0.1,0-0.2,0-0.2-0.1l0.1-0.1
				c0.2,0.3,0.3,0.7,0.4,1c0.1,0.4,0.3,0.7,0.3,1.1c0,0,0,0-0.1,0c-0.2-0.2-0.3-0.6-0.4-0.9c-0.1-0.4-0.2-0.8-0.4-1.2
				c0-0.1,0.1-0.1,0.1-0.1c0.2,0.1,0.4,0,0.5,0.2c0.1,0.2,0.1,0.4,0.2,0.7c0,0.3,0,0.6,0,1C2.8,27.6,2.9,27.9,2.8,28.3L2.8,28.3
				L2.8,28.3z"/>
		</g>
		<g>
			<path class="st0" d="M2.7,27.5c-0.1-0.3-0.2-0.5-0.2-0.8c-0.1-0.3-0.2-0.6-0.3-0.9c0-0.1,0.1-0.2,0.1-0.1
				c0.2,0.1,0.3,0.2,0.4,0.4c-0.1,0-0.1,0.1-0.2,0.1c-0.1-0.2-0.2-0.4-0.4-0.5C2,25.6,2,25.5,2.2,25.5s0.3,0,0.5-0.1
				c0,0.1,0,0.2,0,0.2c-0.1,0-0.1,0-0.2,0l0.1-0.1c0,0.5,0.1,1.1,0.2,1.7H2.7c-0.2-0.5-0.4-1.1-0.3-1.7c0-0.1,0.1-0.1,0.1-0.1h0.1
				c0.1,0,0.2,0.2,0,0.2c-0.2,0.1-0.4,0.1-0.5,0.1c0-0.1,0-0.1,0.1-0.2c0.2,0.1,0.4,0.4,0.5,0.6c0,0.1-0.1,0.2-0.2,0.1
				c-0.1-0.1-0.2-0.3-0.4-0.4c0.1,0,0.1-0.1,0.2-0.1c0.1,0.3,0.2,0.5,0.3,0.8C2.7,26.9,2.7,27.2,2.7,27.5
				C2.7,27.5,2.7,27.6,2.7,27.5L2.7,27.5z"/>
		</g>
	</g>
	<g>
		<path class="st0" d="M2.9,17c0.7-0.2,1.3-1.3,1.2-2c0,0,0-0.1-0.1,0c-0.4,0.1-0.6,0.4-0.8,0.7C3,16,2.8,16.5,2.9,17
			C2.8,17.1,2.9,17.1,2.9,17C3,16.9,3,16.7,3,16.5s0.2-0.5,0.3-0.7c0.2-0.3,0.4-0.7,0.8-0.8H4c0.1,0.4-0.1,0.8-0.3,1.1
			C3.5,16.4,3.2,16.6,2.9,17C2.9,16.9,2.9,17,2.9,17L2.9,17z"/>
	</g>
	<g>
		<path class="st0" d="M2.9,16.9c0.3-0.3,0.4-0.6,0.6-0.9s0.4-0.6,0.6-1c0,0,0-0.1-0.1-0.1c-0.3,0.2-0.4,0.5-0.6,0.8
			C3.3,16.1,3.1,16.5,2.9,16.9L2.9,16.9L2.9,16.9z"/>
	</g>
	<g>
		<path class="st0" d="M3,15.3c0.5-0.5,1.3-1.2,1.1-2c0,0,0-0.1-0.1,0c-0.4,0.1-0.6,0.4-0.8,0.7c-0.2,0.4-0.4,0.9-0.4,1.4
			C2.8,15.4,2.9,15.4,3,15.3c0.2-0.6,0.3-1.7,1.1-2H4c0.1,0.4-0.1,0.8-0.3,1.1C3.5,14.8,3.1,15,3,15.3C2.9,15.3,2.9,15.4,3,15.3
			L3,15.3z"/>
	</g>
	<g>
		<path class="st0" d="M3,15.3c0.2-0.3,0.4-0.6,0.6-0.9s0.4-0.6,0.6-1c0-0.1-0.1-0.1-0.1,0C3.6,14,3.2,14.6,3,15.3
			C2.9,15.3,2.9,15.3,3,15.3L3,15.3z"/>
	</g>
	<g>
		<path class="st0" d="M2.9,13.6c0.8-0.3,1.1-1.3,1.1-2c0,0,0-0.1-0.1-0.1c-0.3,0-0.5,0.3-0.7,0.6C3,12.5,2.8,13,2.8,13.4
			c0,0,0,0.1,0.1,0c0.2-0.3,0.2-0.7,0.4-1c0.1-0.3,0.3-0.8,0.7-0.8l-0.1-0.1c0,0.4-0.1,0.8-0.3,1.1C3.4,13.1,3.1,13.3,2.9,13.6
			C2.8,13.6,2.9,13.6,2.9,13.6L2.9,13.6z"/>
	</g>
	<g>
		<path class="st0" d="M2.9,13.5c0.2-0.3,0.4-0.6,0.5-0.9c0.2-0.3,0.4-0.6,0.5-0.9c0-0.1-0.1-0.1-0.1,0c-0.2,0.3-0.4,0.6-0.5,0.9
			C3.2,12.8,3,13.1,2.9,13.5L2.9,13.5L2.9,13.5z"/>
	</g>
	<g>
		<path class="st0" d="M2.9,11.8c0.4-0.1,0.6-0.5,0.7-0.8c0.2-0.4,0.3-0.8,0.2-1.2c0,0-0.1-0.1-0.1,0C3.4,10,3.2,10.3,3,10.6
			c-0.1,0.3-0.3,0.8-0.3,1.1c0,0.1,0.1,0.1,0.1,0c0.1-0.3,0.1-0.6,0.2-0.9c0.1-0.4,0.3-0.7,0.6-0.9H3.5C3.8,10.3,3.4,11.5,2.9,11.8
			C2.8,11.7,2.8,11.8,2.9,11.8L2.9,11.8z"/>
	</g>
	<g>
		<path class="st0" d="M2.9,11.7c0.2-0.2,0.4-0.5,0.5-0.8c0.2-0.3,0.4-0.7,0.4-1c0,0,0-0.1-0.1,0c-0.2,0.2-0.3,0.6-0.4,0.9
			C3.2,11,3,11.3,2.9,11.7C2.8,11.7,2.9,11.7,2.9,11.7L2.9,11.7z"/>
	</g>
	<g>
		<path class="st0" d="M2.8,10.7C3.2,10,3.3,9,2.8,8.3H2.7C2.3,9,2.2,10,2.8,10.7L2.8,10.7c0-0.2-0.1-0.2-0.1-0.3
			c-0.1-0.2-0.2-0.5-0.2-0.8c0-0.4,0.1-0.8,0.3-1.2H2.7C3.3,9,3.1,10,2.8,10.7L2.8,10.7L2.8,10.7z"/>
	</g>
	<g>
		<path class="st0" d="M2.8,10.5c0.1-0.4,0-0.9,0.1-1.3c0-0.3,0.1-0.6,0-0.9c0-0.1-0.1,0-0.1,0c0.1,0.3,0,0.6,0,0.9
			C2.7,9.7,2.7,10.1,2.8,10.5C2.8,10.6,2.8,10.6,2.8,10.5L2.8,10.5z"/>
	</g>
	<g>
		<path class="st0" d="M2.8,11.6c0.2-0.3-0.1-0.7-0.2-0.9c-0.2-0.3-0.5-0.6-0.9-0.7c-0.1,0-0.1,0-0.1,0.1c0,0.4,0.1,0.7,0.4,1
			c0.2,0.3,0.6,0.6,0.9,0.7c0.1,0,0.1-0.1,0-0.1c-0.5-0.4-1.2-0.9-1.2-1.6c0,0-0.1,0-0.1,0.1C2.1,10.3,2.8,11,2.8,11.6
			C2.7,11.6,2.8,11.6,2.8,11.6L2.8,11.6z"/>
	</g>
	<g>
		<path class="st0" d="M2.9,11.7c-0.2-0.3-0.4-0.7-0.6-1c-0.1-0.1-0.3-0.3-0.4-0.4c0-0.1-0.1-0.1-0.2-0.2c0,0-0.1,0-0.1,0.1
			c0.2,0.2,0.3,0.4,0.5,0.6C2.4,11.1,2.6,11.4,2.9,11.7C2.8,11.7,2.9,11.7,2.9,11.7L2.9,11.7z"/>
	</g>
	<g>
		<path class="st0" d="M2.9,13.4c-0.2-0.6-0.6-1.4-1.4-1.5c0,0-0.1,0-0.1,0.1c0,0.4,0.2,0.7,0.4,0.9c0.3,0.3,0.6,0.6,1,0.8
			c0,0,0.1-0.1,0-0.1c-0.5-0.4-1.4-0.9-1.4-1.6c0,0-0.1,0-0.1,0.1c0.3,0.1,0.6,0.3,0.9,0.6C2.6,12.9,2.6,13.1,2.9,13.4
			C2.8,13.4,2.9,13.4,2.9,13.4L2.9,13.4z"/>
	</g>
	<g>
		<path class="st0" d="M2.9,13.5c-0.2-0.3-0.4-0.5-0.6-0.7s-0.5-0.5-0.7-0.7c0,0-0.1,0-0.1,0.1c0.2,0.3,0.4,0.5,0.7,0.7
			C2.4,13,2.6,13.2,2.9,13.5L2.9,13.5L2.9,13.5z"/>
	</g>
	<g>
		<path class="st0" d="M2.9,15.3c-0.2-0.7-0.7-1.4-1.4-1.6H1.4c-0.2,0.3,0,0.6,0.2,0.9c0.3,0.4,0.7,0.7,1.1,0.8
			C2.9,15.5,2.9,15.4,2.9,15.3c-0.1,0-0.2,0-0.3-0.1c-0.2-0.1-0.4-0.3-0.5-0.4c-0.2-0.2-0.6-0.5-0.5-0.9C1.6,13.7,1.9,14,2,14
			c0.2,0.1,0.3,0.3,0.4,0.4C2.5,14.7,2.6,15,2.9,15.3C2.8,15.3,2.9,15.3,2.9,15.3L2.9,15.3z"/>
	</g>
	<g>
		<path class="st0" d="M2.8,15.3c-0.4-0.6-0.8-1.1-1.3-1.5c-0.1-0.1-0.2,0-0.1,0.1C1.9,14.3,2.3,14.9,2.8,15.3
			C2.8,15.4,2.9,15.4,2.8,15.3L2.8,15.3z"/>
	</g>
	<g>
		<path class="st0" d="M2.8,16.9c0-0.5-0.5-0.8-0.8-1.1c-0.1-0.1-0.6-0.4-0.7-0.1c-0.1,0.4,0.4,0.7,0.6,1
			C2.1,16.8,2.6,17.3,2.8,16.9C2.9,16.9,2.8,16.8,2.8,16.9c-0.3,0.2-0.7-0.3-0.9-0.4c-0.1-0.1-0.2-0.2-0.2-0.3
			c-0.1-0.1-0.5-0.6-0.2-0.5c0.2,0,0.4,0.2,0.6,0.4C2.4,16.3,2.6,16.5,2.8,16.9L2.8,16.9L2.8,16.9z"/>
	</g>
	<g>
		<path class="st0" d="M2.8,16.9c-0.3-0.6-1-0.9-1.5-1.3c-0.1-0.1-0.1,0.1-0.1,0.1C1.5,15.9,1.7,16,2,16.3
			C2.3,16.5,2.6,16.7,2.8,16.9C2.8,17,2.9,17,2.8,16.9L2.8,16.9z"/>
	</g>
</g>
</svg>
