<?xml version="1.0" encoding="utf-8"?>
<!-- Generator: Adobe Illustrator 24.0.0, SVG Export Plug-In . SVG Version: 6.00 Build 0)  -->
<svg version="1.1" id="Layer_1" xmlns="http://www.w3.org/2000/svg" xmlns:xlink="http://www.w3.org/1999/xlink" x="0px" y="0px"
	 viewBox="0 0 176.9 65.3" style="enable-background:new 0 0 176.9 65.3;" xml:space="preserve">
<style type="text/css">
	.st0{fill:#FFFFFF;}
</style>
<g>
	<path class="st0" d="M25.4,11.3c1-1.7,2.2-2.9,3.6-3.8c1.3-0.9,2.5-1.3,3.4-1.3c0.9,0,1.3,0.2,1.3,0.6c0,0.1-0.2,0.2-0.6,0.3l0,0
		c-3.3,0.8-5.7,3.9-7.6,9.7c-0.3,1.3-1.2,5.1-2.8,11.1s-2.4,9.3-2.5,9.8L20,38.5c3.5-0.2,7.1-0.2,10.5-0.2c0.6,0,0.9,0.3,1.2,0.9
		c0.1,0.2,0.1,0.3,0.1,0.6c0,0.3-0.9,0.4-2.5,0.4c-1.7,0-3.9,0.1-7.1,0.3c-3,0.2-4.6,0.3-4.7,0.3c-0.6,0-0.9-0.2-0.9-0.7
		s0.1-1.2,0.4-2.6c0.3-1.2,1.1-4.4,2.4-9.3l0.8-3.1C22,18.7,23.7,14.1,25.4,11.3z"/>
	<path class="st0" d="M43.7,21l1.5,0.2c0.2,0,0.4-0.1,0.8-0.4c0.3-0.3,0.6-0.4,1-0.4c0.4,0,0.8,0.1,1,0.3c0.2,0.2,0.3,0.4,0.3,0.6
		c0,0.1-0.1,0.4-0.3,0.8c-0.2,0.3-0.3,0.7-0.3,0.8c-2.1,7.1-3.3,11.5-3.3,13.5c0,0.7,0.1,1,0.4,1c1,0,2.6-1.3,4.8-4
		c1.5-1.8,2.4-3.1,2.8-3.9c0.4-0.9,0.8-1.2,1-1.3h0.1c0.3,0,0.4,0.2,0.4,0.6c0,0.6-0.7,1.9-2.1,4c-2.9,4.5-5.5,6.7-7.6,6.7
		c-1.6,0-2.4-1.1-2.4-3.3c0-1.1,0.2-2.5,0.7-4c0.4-1.6,0.7-2.6,0.8-3c-0.3,0.6-1.7,2.4-3.9,5.6c-2.2,3.3-3.8,5.1-4.7,5.6
		c-0.3,0.1-0.6,0.2-0.8,0.2c-1,0-1.8-0.3-2.2-1.1c-0.2-0.3-0.3-0.9-0.3-1.6s0.6-2.2,1.6-4.8c1.7-4,3.7-7.2,5.8-9.4
		C40.4,22,42.1,21.1,43.7,21z M44.8,23.3c-2.7,0.4-5.1,2.2-7,5.3c-1.9,2.9-2.9,6-3,8.8C38.6,32.3,42,27.6,44.8,23.3z"/>
	<path class="st0" d="M65.4,21c-0.1,0-0.3,0.1-0.7,0.2c-3.8,1.7-6.4,2.5-7.5,2.5c-0.7,0-1.1-0.1-1.5-0.3c-0.3-0.2-0.6-0.4-0.6-0.7
		c0-0.2,0.3-0.4,1-0.6c0.7-0.2,1.9-0.7,3.8-1.3c3.4-1.2,5.4-1.9,6-1.9c0.6,0,1.1,0.2,1.6,0.6s0.8,0.7,0.8,1c0,0.3-0.2,0.9-0.8,1.6
		c-0.6,0.7-1.9,2.2-4.2,4.7s-3.7,4.2-4.4,5.1l15.4-8.9c0.1-0.1,0.2-0.1,0.2-0.1c0.2,0.1,0.4,0.3,0.4,0.8c0,0.4,0,0.7-0.1,0.8
		c-0.4,0.2-0.8,0.6-1.2,0.8l-3.4,2.1c-5.1,3.1-8.9,5.6-11.5,7.6c-2.6,1.9-5.1,4.2-7.2,6.5c-0.2,0.1-0.3,0.2-0.6,0.2
		c-0.4,0-0.9-0.2-1.2-0.8c-0.3-0.6-0.4-0.9-0.4-1.1c0-0.2,0-0.4,0.1-0.6c1.3-1.7,4.3-5.1,8.8-10.1L65.4,21z"/>
	<path class="st0" d="M82.8,19.1c0.9,0,1.5,0.2,1.5,0.8c0,0.1-0.3,1.5-1,3.8L82,27.9c-0.2,1-0.6,2.6-1,4.7c-0.4,2.2-0.8,4.3-1.2,6.1
		C78.1,46,76.3,51.1,74.5,54c-0.6,0.9-1.2,1.7-2,2.5c-1.8,1.8-3.5,2.7-5.1,2.7c-0.8,0-1.1-0.2-1.1-0.6c0-0.1,0.2-0.2,0.7-0.3
		c0.4-0.1,0.9-0.3,1.5-0.6c1.5-0.9,2.7-2.1,3.5-3.7c3.1-5.4,5.4-13.2,6.9-23.4c-0.4,1.5-1.5,3.5-3,5.8c-1.5,2.4-2.9,3.6-4.2,3.6
		c-0.7,0-1-0.7-1-2c0-4.3,1.6-10.5,4.4-18.2c0.1-0.3,0.2-0.6,0.3-0.8c0.2-0.6,0.6-0.8,0.8-0.8s0.6,0,0.8,0.1c0.9,0.2,1.3,0.6,1.3,1
		c0,0.1-0.1,0.6-0.3,1.2l-1.2,3.6c-1.9,5.6-3.1,9.7-3.5,11.9c1.1-1.8,2.7-4.6,4.7-8.5s3.1-6.1,3.3-6.4c0.2-0.3,0.3-0.6,0.4-0.9
		l0.2-0.6C82.1,19.3,82.5,19.1,82.8,19.1z"/>
	<path class="st0" d="M108.8,11.5L108.8,11.5c0.1-0.3,0.1-0.8,0.3-1.3c0.1-0.6,0.3-1,0.6-1.2c0.2-0.2,0.9-0.3,1.8-0.3
		c0.6,0,0.8,0.2,0.8,0.8c0,0.2,0,0.3,0,0.4l-0.4,1.6c2.1,0,4.9-0.1,8.5-0.1c0.6,0,0.9,0.3,1.2,1.1c0.1,0.2,0.1,0.4,0.1,0.6
		c0,0.3-0.7,0.6-2,0.6c-2.9,0-5.7,0.1-8.5,0.3c-3.4,13.6-5.3,21.4-6,23.3s-1.1,3.4-1.7,4.3c-0.6,0.9-1.2,1.8-2.2,2.7
		c-0.9,0.8-1.7,1.2-2.2,1.2c-0.2,0-0.3-0.1-0.3-0.3c0-0.2,0.2-0.6,0.6-1.1c1.7-2.7,3.3-6.7,4.7-12.3l4.3-17.3
		c-3,0.2-6.2,0.3-9.4,0.3c-3.3,0-5.3-0.1-6.2-0.2c-0.8-0.1-1.3-0.6-1.7-1.1c-0.1-0.2-0.1-0.3-0.1-0.4c0-0.2,0.2-0.4,0.8-0.4l0,0
		l11.2-0.6C105,11.6,106.9,11.5,108.8,11.5z"/>
	<path class="st0" d="M116.4,18.3c0.7,0.2,1,0.6,1,1c0,0.1-0.1,0.6-0.3,1.2l-1,2.7c-2.2,6.4-3.5,10.7-3.8,12.7
		c1.2-1.9,2.7-4.6,4.5-8.1c1.8-3.5,2.8-5.6,3.3-6.3s0.7-1.2,0.8-1.8c0.1-0.4,0.3-0.8,0.4-0.9c0.1-0.1,0.4-0.1,0.9-0.1
		c0.7,0,1,0.4,1,1.3c-0.1,0.3-0.4,1.3-0.9,3c-0.4,1.7-1.2,4-2.1,7c-0.9,2.8-1.3,4.8-1.2,6.1c0,1.1,0.1,1.8,0.3,1.8
		c0.8,0,2-1,3.9-3.1c1.9-2.1,3.4-3.9,4.2-5.6c0.3-0.7,0.7-1,1-1c0.1,0,0.2,0.1,0.2,0.4c0,1.5-0.9,3.3-2.8,5.5
		c-1.9,2.2-3.5,3.8-4.8,4.8l-0.4,0.3c-0.6,0.3-1,0.4-1.2,0.4h-0.4c-1.5-0.2-2.2-1.5-2.2-3.7c0-1.1,0.1-2.2,0.2-3.5l0.6-2
		c-1.5,3.6-2.8,6.1-3.9,7.4c-1.1,1.3-2.1,2-3,2c-0.7,0-1-0.7-1-1.9c0-1.9,0.7-5.2,2-9.8c1.9-6.4,3.1-9.9,3.7-10.2
		c0.1,0,0.2-0.1,0.3-0.1C116,18.2,116.2,18.3,116.4,18.3z"/>
	<path class="st0" d="M127.2,41.2c0,1.3,0.2,2.7,0.8,3.9c0.9,2.1,2.2,3.1,4,3.1c1.3,0,2.6-0.3,3.5-1.1c0.9-0.7,2-1.9,3.4-3.5
		c0.4-0.6,0.8-0.7,1.2-0.6c0.4,0.1,0.7,0.4,0.7,1c0,1.6-0.9,2.9-2.8,4s-3.7,1.7-5.4,1.7c-5.1,0-7.5-2.9-7.5-8.9
		c0-2.6,0.4-5.3,1.5-8.1l0.2-0.7c3.1-9,5.6-15.1,7.3-18.1c1.2-2.2,2.5-3.4,3.9-3.4c2,0,3,0.8,3,2.1c0,0.9-0.6,2.2-1.8,4.3
		c-1.2,2-3.6,5.3-7.2,10.1c-0.9,1-1.7,2.1-2.5,3.5C128,33.8,127.2,37.4,127.2,41.2z M131.8,24.3c0.2,0,1.5-1.8,3.5-5.5
		c2-3.6,3.1-5.5,3-5.6c0-0.1-0.1-0.2-0.2-0.2c-0.1,0-0.2,0-0.2,0c-0.6,0.3-1.7,2.1-3.5,5.4c-1.8,3.3-2.7,5.2-2.7,5.7
		C131.8,24.2,131.8,24.3,131.8,24.3z"/>
	<path class="st0" d="M150.9,32.2c-0.7,1.8-1.9,3.5-3.7,5.4c-2.1,2.1-4,3.3-5.5,3.3c-2,0-3.3-1.1-3.7-3.4c-0.1-0.7-0.2-1.5-0.2-2.2
		c0-2.6,0.4-5.6,1.5-9c1.2-4.4,2.5-6.5,3.6-6.5c0.6,0,1,0.1,1.2,0.3c0.2,0.2,0.3,0.4,0.3,0.6c0,0.6-0.6,1.9-1.7,3.9
		c-1.1,2.1-1.8,3.6-2,4.6c-0.2,0.9-0.4,2.1-0.6,3.7c-0.1,1.6-0.2,2.5-0.2,2.9c0,1.5,0.2,2.4,0.6,2.8c0.3,0.3,0.8,0.6,1.3,0.6
		c1.5,0,3.3-1.2,5.3-3.8c1-1.2,1.8-2.5,2.4-3.5c0.2-0.4,0.6-0.6,0.8-0.6c0.4,0.1,0.7,0.3,0.8,0.7C151,31.9,150.9,32,150.9,32.2z
		 M144.9,16.4c-0.1,0-0.3-0.1-0.7-0.4c-0.4-0.3-0.6-0.4-0.6-0.7c0-0.4,0.7-1.6,1.9-3.1c1.2-1.6,2-2.7,2.1-3c0.4-0.4,1-0.2,1.7,0.7
		c0.6,0.7,0.8,1.2,0.6,1.7c-0.1,0.4-0.8,1.3-2.1,2.8C146.4,15.7,145.5,16.4,144.9,16.4z"/>
	<path class="st0" d="M145.4,54c-1,1.7-2.2,2.9-3.6,3.8c-1.3,0.9-2.5,1.3-3.4,1.3c-0.9,0-1.3-0.2-1.3-0.6c0-0.1,0.2-0.2,0.6-0.3l0,0
		c1.3-0.3,2.6-1.2,3.8-2.7c0.2-0.3,0.4-0.7,0.7-1c2-3.3,3.8-8.1,5.4-14.6l3-11.8c1.3-5.5,2.1-8.7,2.4-9.4c0.2-0.8,0.4-1.2,0.9-1.3
		c0.3-0.1,0.7-0.1,1.1-0.1c0.4,0,0.8,0.1,0.8,0.4c0,0.1,0,0.2,0,0.3c0,0.1-0.1,0.4-0.2,0.9c-0.1,0.4-0.2,0.9-0.2,1.1
		c0.2,0,0.6,0,0.9,0c1.8,0,3,0.4,3.7,1.5c0.2,0.3,0.3,0.8,0.3,1.3c0,2.5-0.9,5.3-2.6,8.7c-1.7,3.3-3.5,5.7-5.2,7.3
		c-1,0.9-1.8,1.3-2.5,1.3C148.8,46.7,147.2,51.3,145.4,54z M151,37.6c2.9-3.1,5.1-6.6,6.3-10.5c0.4-1.5,0.8-2.8,1-4
		c-0.4-0.6-1-0.8-1.8-0.8c-0.8,0-1.3,0.2-1.7,0.6l-1.1,4.6C152.5,32,151.7,35.4,151,37.6z"/>
</g>
</svg>
