<?xml version="1.0" encoding="utf-8"?>
<!-- Generator: Adobe Illustrator 24.0.0, SVG Export Plug-In . SVG Version: 6.00 Build 0)  -->
<svg version="1.1" id="Layer_1" xmlns="http://www.w3.org/2000/svg" xmlns:xlink="http://www.w3.org/1999/xlink" x="0px" y="0px"
	 viewBox="0 0 300 150" style="enable-background:new 0 0 300 150;" xml:space="preserve">
<style type="text/css">
	.st0{fill:#FFFFFF;}
</style>
<g>
	<path class="st0" d="M93.7,56c0.9-1.5,2-2.6,3.2-3.4c1.2-0.8,2.2-1.2,3-1.2c0.8,0,1.2,0.2,1.2,0.5c0,0.1-0.2,0.2-0.5,0.3h0
		c-2.9,0.7-5.1,3.5-6.8,8.6c-0.3,1.2-1.1,4.5-2.5,9.9s-2.1,8.3-2.2,8.7l-0.2,0.8C92,80,95.2,80,98.2,80c0.5,0,0.8,0.3,1.1,0.8
		c0.1,0.2,0.1,0.3,0.1,0.5c0,0.3-0.8,0.4-2.2,0.4c-1.5,0-3.5,0.1-6.3,0.3c-2.7,0.2-4.1,0.3-4.2,0.3c-0.5,0-0.8-0.2-0.8-0.6
		c0-0.4,0.1-1.1,0.4-2.3c0.3-1.1,1-3.9,2.1-8.3l0.7-2.8C90.7,62.6,92.2,58.5,93.7,56z"/>
	<path class="st0" d="M110,64.6l1.3,0.2c0.2,0,0.4-0.1,0.7-0.4s0.5-0.4,0.9-0.4c0.4,0,0.7,0.1,0.9,0.3c0.2,0.2,0.3,0.4,0.3,0.5
		c0,0.1-0.1,0.4-0.3,0.7c-0.2,0.3-0.3,0.6-0.3,0.7c-1.9,6.3-2.9,10.2-2.9,12c0,0.6,0.1,0.9,0.4,0.9c0.9,0,2.3-1.2,4.3-3.6
		c1.3-1.6,2.1-2.8,2.5-3.5c0.4-0.8,0.7-1.1,0.9-1.2c0,0,0.1,0,0.1,0c0.3,0,0.4,0.2,0.4,0.5c0,0.5-0.6,1.7-1.9,3.6
		c-2.6,4-4.9,6-6.8,6c-1.4,0-2.1-1-2.1-2.9c0-1,0.2-2.2,0.6-3.6c0.4-1.4,0.6-2.3,0.7-2.7c-0.3,0.5-1.5,2.1-3.5,5s-3.4,4.5-4.2,5
		c-0.3,0.1-0.5,0.2-0.7,0.2c-0.9,0-1.6-0.3-2-1c-0.2-0.3-0.3-0.8-0.3-1.4c0-0.6,0.5-2,1.4-4.3c1.5-3.6,3.3-6.4,5.2-8.4
		C107.1,65.5,108.6,64.7,110,64.6z M111,66.7c-2.4,0.4-4.5,2-6.2,4.7c-1.7,2.6-2.6,5.3-2.7,7.8C105.5,74.7,108.5,70.5,111,66.7z"/>
	<path class="st0" d="M129.3,64.6c-0.1,0-0.3,0.1-0.6,0.2c-3.4,1.5-5.7,2.2-6.7,2.2c-0.6,0-1-0.1-1.3-0.3c-0.3-0.2-0.5-0.4-0.5-0.6
		c0-0.2,0.3-0.4,0.9-0.5c0.6-0.2,1.7-0.6,3.4-1.2c3-1.1,4.8-1.7,5.3-1.7c0.5,0,1,0.2,1.4,0.5c0.4,0.3,0.7,0.6,0.7,0.9
		s-0.2,0.8-0.7,1.4c-0.5,0.6-1.7,2-3.7,4.2c-2,2.2-3.3,3.7-3.9,4.5l13.7-7.9c0.1-0.1,0.2-0.1,0.2-0.1c0.2,0.1,0.4,0.3,0.4,0.7
		c0,0.4,0,0.6-0.1,0.7c-0.4,0.2-0.7,0.5-1.1,0.7l-3,1.9c-4.5,2.8-7.9,5-10.2,6.8c-2.3,1.7-4.5,3.7-6.4,5.8c-0.2,0.1-0.3,0.2-0.5,0.2
		c-0.4,0-0.8-0.2-1.1-0.7s-0.4-0.8-0.4-1c0-0.2,0-0.4,0.1-0.5c1.2-1.5,3.8-4.5,7.8-9L129.3,64.6z"/>
	<path class="st0" d="M144.8,62.9c0.8,0,1.3,0.2,1.3,0.7c0,0.1-0.3,1.3-0.9,3.4l-1.1,3.8c-0.2,0.9-0.5,2.3-0.9,4.2
		c-0.4,2-0.7,3.8-1.1,5.4c-1.5,6.5-3.1,11-4.7,13.6c-0.5,0.8-1.1,1.5-1.8,2.2c-1.6,1.6-3.1,2.4-4.5,2.4c-0.7,0-1-0.2-1-0.5
		c0-0.1,0.2-0.2,0.6-0.3c0.4-0.1,0.8-0.3,1.3-0.5c1.3-0.8,2.4-1.9,3.1-3.3c2.8-4.8,4.8-11.7,6.1-20.8c-0.4,1.3-1.3,3.1-2.7,5.2
		c-1.3,2.1-2.6,3.2-3.7,3.2c-0.6,0-0.9-0.6-0.9-1.8c0-3.8,1.4-9.3,3.9-16.2c0.1-0.3,0.2-0.5,0.3-0.7c0.2-0.5,0.5-0.7,0.7-0.7
		s0.5,0,0.7,0.1c0.8,0.2,1.2,0.5,1.2,0.9c0,0.1-0.1,0.5-0.3,1.1l-1.1,3.2c-1.7,5-2.8,8.6-3.1,10.6c1-1.6,2.4-4.1,4.2-7.6
		c1.8-3.5,2.8-5.4,2.9-5.7c0.2-0.3,0.3-0.5,0.4-0.8l0.2-0.5C144.2,63.1,144.5,62.9,144.8,62.9z"/>
	<path class="st0" d="M167.9,56.2L167.9,56.2c0.1-0.3,0.1-0.7,0.3-1.2c0.1-0.5,0.3-0.9,0.5-1.1c0.2-0.2,0.8-0.3,1.6-0.3
		c0.5,0,0.7,0.2,0.7,0.7c0,0.2,0,0.3,0,0.4l-0.4,1.4c1.9,0,4.4-0.1,7.6-0.1c0.5,0,0.8,0.3,1.1,1c0.1,0.2,0.1,0.4,0.1,0.5
		c0,0.3-0.6,0.5-1.8,0.5c-2.6,0-5.1,0.1-7.6,0.3c-3,12.1-4.7,19-5.3,20.7s-1,3-1.5,3.8c-0.5,0.8-1.1,1.6-2,2.4
		c-0.8,0.7-1.5,1.1-2,1.1c-0.2,0-0.3-0.1-0.3-0.3c0-0.2,0.2-0.5,0.5-1c1.5-2.4,2.9-6,4.2-10.9l3.8-15.4c-2.7,0.2-5.5,0.3-8.4,0.3
		c-2.9,0-4.7-0.1-5.5-0.2c-0.7-0.1-1.2-0.5-1.5-1c-0.1-0.2-0.1-0.3-0.1-0.4c0-0.2,0.2-0.4,0.7-0.4c0,0,0,0,0,0l10-0.5
		C164.5,56.3,166.2,56.2,167.9,56.2z"/>
	<path class="st0" d="M174.7,62.2c0.6,0.2,0.9,0.5,0.9,0.9c0,0.1-0.1,0.5-0.3,1.1l-0.9,2.4c-2,5.7-3.1,9.5-3.4,11.3
		c1.1-1.7,2.4-4.1,4-7.2c1.6-3.1,2.5-5,2.9-5.6c0.4-0.6,0.6-1.1,0.7-1.6c0.1-0.4,0.3-0.7,0.4-0.8c0.1-0.1,0.4-0.1,0.8-0.1
		c0.6,0,0.9,0.4,0.9,1.2c-0.1,0.3-0.4,1.2-0.8,2.7s-1.1,3.6-1.9,6.2c-0.8,2.5-1.2,4.3-1.1,5.4c0,1,0.1,1.6,0.3,1.6
		c0.7,0,1.8-0.9,3.5-2.8c1.7-1.9,3-3.5,3.7-5c0.3-0.6,0.6-0.9,0.9-0.9c0.1,0,0.2,0.1,0.2,0.4c0,1.3-0.8,2.9-2.5,4.9
		s-3.1,3.4-4.3,4.3l-0.4,0.3c-0.5,0.3-0.9,0.4-1.1,0.4h-0.4c-1.3-0.2-2-1.3-2-3.3c0-1,0.1-2,0.2-3.1l0.5-1.8
		c-1.3,3.2-2.5,5.4-3.5,6.6s-1.9,1.8-2.7,1.8c-0.6,0-0.9-0.6-0.9-1.7c0-1.7,0.6-4.6,1.8-8.7c1.7-5.7,2.8-8.8,3.3-9.1
		c0.1,0,0.2-0.1,0.3-0.1C174.3,62.1,174.5,62.2,174.7,62.2z"/>
	<path class="st0" d="M184.3,82.6c0,1.2,0.2,2.4,0.7,3.5c0.8,1.9,2,2.8,3.6,2.8c1.2,0,2.3-0.3,3.1-1c0.8-0.6,1.8-1.7,3-3.1
		c0.4-0.5,0.7-0.6,1.1-0.5c0.4,0.1,0.6,0.4,0.6,0.9c0,1.4-0.8,2.6-2.5,3.6s-3.3,1.5-4.8,1.5c-4.5,0-6.7-2.6-6.7-7.9
		c0-2.3,0.4-4.7,1.3-7.2l0.2-0.6c2.8-8,5-13.4,6.5-16.1c1.1-2,2.2-3,3.5-3c1.8,0,2.7,0.7,2.7,1.9c0,0.8-0.5,2-1.6,3.8
		s-3.2,4.7-6.4,9c-0.8,0.9-1.5,1.9-2.2,3.1C185,76,184.3,79.2,184.3,82.6z M188.4,67.6c0.2,0,1.3-1.6,3.1-4.9c1.8-3.2,2.8-4.9,2.7-5
		c0-0.1-0.1-0.2-0.2-0.2c-0.1,0-0.2,0-0.2,0c-0.5,0.3-1.5,1.9-3.1,4.8c-1.6,2.9-2.4,4.6-2.4,5.1C188.4,67.5,188.4,67.6,188.4,67.6z"
		/>
	<path class="st0" d="M205.4,74.6c-0.6,1.6-1.7,3.1-3.3,4.8c-1.9,1.9-3.6,2.9-4.9,2.9c-1.8,0-2.9-1-3.3-3c-0.1-0.6-0.2-1.3-0.2-2
		c0-2.3,0.4-5,1.3-8c1.1-3.9,2.2-5.8,3.2-5.8c0.5,0,0.9,0.1,1.1,0.3c0.2,0.2,0.3,0.4,0.3,0.5c0,0.5-0.5,1.7-1.5,3.5
		c-1,1.9-1.6,3.2-1.8,4.1c-0.2,0.8-0.4,1.9-0.5,3.3c-0.1,1.4-0.2,2.2-0.2,2.6c0,1.3,0.2,2.1,0.5,2.5c0.3,0.3,0.7,0.5,1.2,0.5
		c1.3,0,2.9-1.1,4.7-3.4c0.9-1.1,1.6-2.2,2.1-3.1c0.2-0.4,0.5-0.5,0.7-0.5c0.4,0.1,0.6,0.3,0.7,0.6
		C205.5,74.3,205.4,74.4,205.4,74.6z M200,60.5c-0.1,0-0.3-0.1-0.6-0.4c-0.4-0.3-0.5-0.4-0.5-0.6c0-0.4,0.6-1.4,1.7-2.8
		s1.8-2.4,1.9-2.7c0.4-0.4,0.9-0.2,1.5,0.6c0.5,0.6,0.7,1.1,0.5,1.5c-0.1,0.4-0.7,1.2-1.9,2.5S200.6,60.5,200,60.5z"/>
	<path class="st0" d="M200.5,94c-0.9,1.5-2,2.6-3.2,3.4c-1.2,0.8-2.2,1.2-3,1.2c-0.8,0-1.2-0.2-1.2-0.5c0-0.1,0.2-0.2,0.5-0.3h0
		c1.2-0.3,2.3-1.1,3.4-2.4c0.2-0.3,0.4-0.6,0.6-0.9c1.8-2.9,3.4-7.2,4.8-13l2.7-10.5c1.2-4.9,1.9-7.7,2.1-8.4s0.4-1.1,0.8-1.2
		c0.3-0.1,0.6-0.1,1-0.1s0.7,0.1,0.7,0.4c0,0.1,0,0.2,0,0.3s-0.1,0.4-0.2,0.8c-0.1,0.4-0.2,0.8-0.2,1c0.2,0,0.5,0,0.8,0
		c1.6,0,2.7,0.4,3.3,1.3c0.2,0.3,0.3,0.7,0.3,1.2c0,2.2-0.8,4.7-2.3,7.7c-1.5,2.9-3.1,5.1-4.6,6.5c-0.9,0.8-1.6,1.2-2.2,1.2
		C203.5,87.5,202.1,91.6,200.5,94z M205.5,79.4c2.6-2.8,4.5-5.9,5.6-9.3c0.4-1.3,0.7-2.5,0.9-3.6c-0.4-0.5-0.9-0.7-1.6-0.7
		c-0.7,0-1.2,0.2-1.5,0.5l-1,4.1C206.8,74.4,206.1,77.4,205.5,79.4z"/>
</g>
</svg>
