<?xml version="1.0" encoding="utf-8"?>
<!-- Generator: Adobe Illustrator 24.0.0, SVG Export Plug-In . SVG Version: 6.00 Build 0)  -->
<svg version="1.1" id="Layer_1" xmlns="http://www.w3.org/2000/svg" xmlns:xlink="http://www.w3.org/1999/xlink" x="0px" y="0px"
	 viewBox="0 0 38.4 11.4" style="enable-background:new 0 0 38.4 11.4;" xml:space="preserve">
<style type="text/css">
	.st0{fill:#3B6D8D;}
	.st1{fill:#D8C589;}
</style>
<g>
	<path class="st0" d="M28.2,2.5c-0.6-0.9-4.7,3.3-4.7,3.3S29.6,4.5,28.2,2.5z M27.6,3.3c-0.5,0.6-1.1,1.1-1.8,1.5
		c-0.6,0.4-1.3,0.8-2.1,1c0.5-0.6,1.1-1.1,1.8-1.5C26.2,3.9,26.9,3.5,27.6,3.3z"/>
	<path class="st0" d="M24.2,8.5c0.6-0.9-4.8-3.3-4.8-3.3S22.8,10.5,24.2,8.5z M23.2,8.2c-0.7-0.3-1.4-0.7-2-1.1
		c-0.6-0.5-1.2-1-1.7-1.6c0.7,0.3,1.4,0.7,2,1.1C22.2,7.1,22.8,7.6,23.2,8.2z"/>
	<path class="st0" d="M8.4,8.8c0.7,0.5,1.5,1.1,2.1,1.7c-0.9-0.4-1.6-0.9-2.4-1.4C7.4,8.6,6.7,8.1,6,7.4c0.8,1.1,4.2,5.6,5.6,3.4
		c0.6-1.1-5.8-3.7-5.8-3.7s0,0.1,0.2,0.3C6.9,7.7,7.6,8.3,8.4,8.8z"/>
	<path class="st0" d="M32.6,6.9c-1.4-0.3-1.7-0.2-3.2-0.4c-0.7-0.1-1.4-0.2-2.1-0.3l-2.1-0.2c-2.8-0.3-5.7-0.3-8.5-0.2
		c-1.4,0-2.8,0.2-4.2,0.3l-2.1,0.3L9.3,6.5L8.3,6.7C7.6,6.8,6.9,7,6.2,7.1L4.1,7.7C3.7,7.7,3.4,7.8,3.1,7.9l-1,0.3L0,8.9
		c2.6-1.1,5.3-2.1,8.2-2.6l1.1-0.2C9.6,6,9.9,6,10.3,5.9l2.1-0.3c1.4-0.1,2.8-0.3,4.3-0.3c2.9-0.1,5.8,0,8.6,0.4
		C28,5.9,29.8,6.1,32.6,6.9z"/>
	<g>
		<path class="st1" d="M31.3,9.3c0.3,0.4,0.7,0.6,1.2,0.8c0.5,0.1,0.9,0.2,1.4,0.1c0.9-0.1,1.8-0.4,2.6-0.9c0.4-0.2,0.8-0.5,1.1-0.8
			c0.3-0.3,0.6-0.7,0.7-1.2c0.1-0.5,0-0.9-0.3-1.3c-0.2-0.4-0.6-0.7-1-1c-0.8-0.5-1.6-1-2.5-1.1c-0.9-0.2-1.9-0.1-2.6,0.4
			c-0.7,0.5-1.1,1.4-1.3,2.3C30.5,7.5,30.6,8.6,31.3,9.3z M31.2,9.3c-0.6-0.7-1-1.7-0.9-2.7s0.4-2.1,1.3-2.7c0.4-0.3,1-0.5,1.5-0.6
			c0.5,0,1.1,0,1.5,0.1c1,0.2,1.9,0.7,2.6,1.4c0.4,0.3,0.7,0.7,0.9,1.1c0.2,0.4,0.4,0.9,0.3,1.5c-0.1,0.5-0.3,1-0.6,1.3
			c-0.3,0.4-0.7,0.7-1.1,1c-0.8,0.5-1.8,0.9-2.8,0.8C32.8,10.5,31.9,10.1,31.2,9.3z"/>
		<path class="st1" d="M37.7,6.3c0.1,0.3,0.2,0.5,0.2,0.9c0,0.3-0.1,0.6-0.4,0.8c-0.1,0.1-0.3,0.2-0.4,0.2c-0.1,0-0.4,0-0.5-0.1
			c-0.3-0.3-0.2-0.6-0.3-0.9c0-0.3,0.1-0.6,0.2-0.9c0-0.1,0.1-0.3,0.2-0.4c0,0,0.1-0.1,0.2-0.1c0.1,0,0.1,0,0.1,0.1
			c0,0,0.1,0.1,0.1,0.2c0.2,0.3,0.3,0.5,0.3,0.9c0,0.1,0,0.1-0.1,0.2c0,0,0,0-0.1,0.1c0,0-0.1,0-0.1,0C37,7.1,36.9,7,36.9,6.8
			c0,0.1,0.1,0.3,0.2,0.4c0.1,0.1,0.2-0.1,0.2-0.2c0-0.3-0.1-0.5-0.3-0.7c0,0-0.1-0.1-0.1-0.1l0,0c0,0,0,0,0,0
			c0,0.1-0.1,0.2-0.1,0.4c-0.1,0.3-0.1,0.5-0.1,0.8c0,0.3,0,0.6,0.2,0.7c0.1,0.1,0.5,0,0.6-0.1C37.8,7.5,37.8,6.8,37.7,6.3z"/>
		<path class="st1" d="M30.4,6.9c0,0.9,0.5,1.6,1.1,2.2c0.5,0.5,0.8,0.2,0.6-0.5c-0.3-1.3-0.9-1.4-0.9-1.4s1.6,0.5,1.4-0.4
			s-1.4-0.5-1.4-0.5s2.1-1.1,1.4-1.6c-0.7-0.5-1.4,0-1.9,0.9C30.5,6,30.4,6.3,30.4,6.9z"/>
	</g>
	<path class="st0" d="M13.7,5.6C14.4,4.8,15.2,4,16,3.3c0.8-0.7,1.7-1.4,2.6-2c-0.7,0.9-1.6,1.6-2.4,2.3C15.4,4.4,14.6,5.1,13.7,5.6
		c1.6-0.6,7.8-3.3,5.7-5.5c-1.1-1.1-6,5.7-6,5.7S13.4,5.7,13.7,5.6z"/>
</g>
</svg>
