<?xml version="1.0" encoding="utf-8"?>
<!-- Generator: Adobe Illustrator 24.0.0, SVG Export Plug-In . SVG Version: 6.00 Build 0)  -->
<svg version="1.1" id="Layer_1" xmlns="http://www.w3.org/2000/svg" xmlns:xlink="http://www.w3.org/1999/xlink" x="0px" y="0px"
	 viewBox="0 0 155.8 46" style="enable-background:new 0 0 155.8 46;" xml:space="preserve">
<style type="text/css">
	.st0{fill:#FFFFFF;}
</style>
<g>
	<path class="st0" d="M97.5,16c-1.4-1.9-10.3,7.2-10.3,7.2S100.7,20.4,97.5,16z M96.2,17.7C95.1,19,93.7,20,92.3,21
		c-1.4,0.9-2.9,1.7-4.6,2.2c1.1-1.3,2.5-2.3,3.9-3.3C93.1,19,94.6,18.2,96.2,17.7z"/>
	<path class="st0" d="M88.7,29.1c1.3-2-10.4-7.2-10.4-7.2S85.7,33.6,88.7,29.1z M86.7,28.5c-1.6-0.6-3.1-1.5-4.4-2.5
		c-1.3-1-2.6-2.1-3.7-3.5c1.6,0.6,3.1,1.5,4.4,2.5C84.4,26,85.7,27.1,86.7,28.5z"/>
	<path class="st0" d="M54.1,29.7c1.6,1.1,3.2,2.3,4.7,3.8c-1.9-0.8-3.5-1.9-5.2-3c-1.6-1.1-3.2-2.3-4.7-3.8
		c1.8,2.5,9.3,12.2,12.2,7.4c1.4-2.4-12.6-8-12.6-8s0.1,0.2,0.4,0.6C50.8,27.5,52.5,28.6,54.1,29.7z"/>
	<path class="st0" d="M107.1,25.7c-3-0.7-3.8-0.4-6.9-0.8c-1.5-0.2-3.1-0.4-4.6-0.6L91,23.8c-6.2-0.6-12.4-0.7-18.6-0.5
		c-3.1,0-6.2,0.4-9.3,0.6l-4.6,0.6l-2.3,0.3l-2.3,0.4c-1.5,0.3-3.1,0.6-4.6,0.9l-4.5,1.2c-0.8,0.2-1.5,0.4-2.3,0.6l-2.2,0.7L35.8,30
		c5.8-2.4,11.7-4.5,17.9-5.7l2.3-0.5c0.8-0.1,1.5-0.2,2.3-0.4l4.7-0.7c3.1-0.3,6.2-0.7,9.4-0.7c6.3-0.2,12.6,0,18.8,0.8
		C97.2,23.5,101.1,23.8,107.1,25.7z"/>
	<g>
		<path class="st0" d="M104.3,30.9c0.7,0.8,1.6,1.4,2.6,1.7c1,0.3,2,0.4,3,0.3c2-0.2,4-0.9,5.7-1.9c0.9-0.5,1.7-1.1,2.4-1.8
			c0.7-0.7,1.3-1.6,1.5-2.6s-0.1-2-0.7-2.9c-0.5-0.9-1.3-1.6-2.1-2.2c-1.7-1.2-3.6-2.1-5.5-2.5c-2-0.4-4.1-0.2-5.6,0.9
			c-1.5,1.2-2.4,3.1-2.8,5.1C102.6,27,102.9,29.3,104.3,30.9z M104.2,31c-1.4-1.6-2.1-3.8-2-6s0.9-4.5,2.8-6
			c0.9-0.7,2.1-1.2,3.2-1.3c1.1-0.1,2.3,0,3.3,0.2c2.2,0.5,4.1,1.6,5.7,3.1c0.8,0.7,1.5,1.6,2,2.5s0.9,2,0.7,3.2
			c-0.2,1.1-0.7,2.1-1.4,2.9s-1.5,1.6-2.4,2.2c-1.8,1.2-4,1.9-6.2,1.8C107.7,33.6,105.6,32.6,104.2,31z"/>
		<path class="st0" d="M118.3,24.3c0.3,0.6,0.4,1.2,0.4,1.9c0,0.7-0.3,1.4-0.9,1.8c-0.3,0.2-0.6,0.4-0.9,0.5
			c-0.3,0.1-0.8,0.1-1.1-0.2c-0.6-0.6-0.5-1.4-0.6-2c0-0.7,0.2-1.3,0.4-1.9c0.1-0.3,0.2-0.6,0.5-0.9c0.1-0.1,0.2-0.2,0.4-0.2
			c0.2,0.1,0.2,0.1,0.3,0.2s0.2,0.3,0.3,0.4c0.4,0.6,0.7,1.2,0.6,1.9c0,0.2-0.1,0.3-0.2,0.5c-0.1,0.1-0.1,0.1-0.3,0.2
			c-0.1,0-0.2-0.1-0.3-0.1c-0.2-0.3-0.3-0.6-0.4-0.9c0.1,0.3,0.3,0.6,0.5,0.8c0.2,0.2,0.4-0.2,0.4-0.4c0-0.6-0.2-1.2-0.6-1.6
			c-0.1-0.1-0.2-0.2-0.3-0.3l-0.1-0.1c0.1,0,0,0,0,0c-0.1,0.2-0.3,0.5-0.3,0.8c-0.2,0.6-0.3,1.2-0.3,1.8c0,0.6,0,1.3,0.4,1.6
			c0.3,0.3,1,0.1,1.4-0.2C118.5,27,118.6,25.5,118.3,24.3z"/>
		<path class="st0" d="M102.4,25.6c0.1,1.9,1,3.6,2.3,4.9c1,1,1.7,0.4,1.3-1.1c-0.7-2.8-1.9-3.1-1.9-3.1s3.5,1.2,3-0.9s-3-1.2-3-1.2
			s4.5-2.3,3-3.4c-1.5-1.2-3.1,0-4.1,1.9C102.5,23.6,102.3,24.4,102.4,25.6z"/>
	</g>
	<path class="st0" d="M65.7,22.9c1.6-1.8,3.4-3.5,5.2-5.1s3.7-3.1,5.8-4.4c-1.6,1.9-3.4,3.5-5.2,5.1C69.6,20.1,67.7,21.6,65.7,22.9
		c3.5-1.4,17.1-7.3,12.4-12.1c-2.4-2.4-13.2,12.4-13.2,12.4S65.2,23.1,65.7,22.9z"/>
</g>
</svg>
