<?xml version="1.0" encoding="utf-8"?>
<!-- Generator: Adobe Illustrator 24.0.0, SVG Export Plug-In . SVG Version: 6.00 Build 0)  -->
<svg version="1.1" id="Layer_1" xmlns="http://www.w3.org/2000/svg" xmlns:xlink="http://www.w3.org/1999/xlink" x="0px" y="0px"
	 viewBox="0 0 300 150" style="enable-background:new 0 0 300 150;" xml:space="preserve">
<style type="text/css">
	.st0{fill:#FFFFFF;}
</style>
<g>
	<path class="st0" d="M169.7,68c-1.4-1.9-10.3,7.2-10.3,7.2S172.9,72.4,169.7,68z M168.4,69.7c-1.1,1.3-2.5,2.3-3.9,3.3
		c-1.4,0.9-2.9,1.7-4.6,2.2c1.1-1.3,2.5-2.3,3.9-3.3C165.3,71,166.8,70.2,168.4,69.7z"/>
	<path class="st0" d="M160.9,81.1c1.3-2-10.4-7.2-10.4-7.2S157.9,85.6,160.9,81.1z M158.9,80.5c-1.6-0.6-3.1-1.5-4.4-2.5
		c-1.3-1-2.6-2.1-3.7-3.5c1.6,0.6,3.1,1.5,4.4,2.5C156.6,78,157.9,79.1,158.9,80.5z"/>
	<path class="st0" d="M126.3,81.7c1.6,1.1,3.2,2.3,4.7,3.8c-1.9-0.8-3.5-1.9-5.2-3c-1.6-1.1-3.2-2.3-4.7-3.8
		c1.8,2.5,9.3,12.2,12.2,7.4c1.4-2.4-12.6-8-12.6-8s0.1,0.2,0.4,0.6C123,79.5,124.7,80.6,126.3,81.7z"/>
	<path class="st0" d="M179.3,77.7c-3-0.7-3.8-0.4-6.9-0.8c-1.5-0.2-3.1-0.4-4.6-0.6l-4.6-0.5c-6.2-0.6-12.4-0.7-18.6-0.5
		c-3.1,0-6.2,0.4-9.3,0.6l-4.6,0.6l-2.3,0.3l-2.3,0.4c-1.5,0.3-3.1,0.6-4.6,0.9l-4.5,1.2c-0.8,0.2-1.5,0.4-2.3,0.6l-2.2,0.7
		l-4.5,1.4c5.8-2.4,11.7-4.5,17.9-5.7l2.3-0.5c0.8-0.1,1.5-0.2,2.3-0.4l4.7-0.7c3.1-0.3,6.2-0.7,9.4-0.7c6.3-0.2,12.6,0,18.8,0.8
		C169.4,75.5,173.3,75.8,179.3,77.7z"/>
	<g>
		<path class="st0" d="M176.5,82.9c0.7,0.8,1.6,1.4,2.6,1.7c1,0.3,2,0.4,3,0.3c2-0.2,4-0.9,5.7-1.9c0.9-0.5,1.7-1.1,2.4-1.8
			c0.7-0.7,1.3-1.6,1.5-2.6c0.2-1-0.1-2-0.7-2.9c-0.5-0.9-1.3-1.6-2.1-2.2c-1.7-1.2-3.6-2.1-5.5-2.5c-2-0.4-4.1-0.2-5.6,0.9
			c-1.5,1.2-2.4,3.1-2.8,5.1C174.8,79,175.1,81.3,176.5,82.9z M176.4,83c-1.4-1.6-2.1-3.8-2-6c0.1-2.2,0.9-4.5,2.8-6
			c0.9-0.7,2.1-1.2,3.2-1.3c1.1-0.1,2.3,0,3.3,0.2c2.2,0.5,4.1,1.6,5.7,3.1c0.8,0.7,1.5,1.6,2,2.5c0.5,0.9,0.9,2,0.7,3.2
			c-0.2,1.1-0.7,2.1-1.4,2.9c-0.7,0.8-1.5,1.6-2.4,2.2c-1.8,1.2-4,1.9-6.2,1.8C179.9,85.6,177.8,84.6,176.4,83z"/>
		<path class="st0" d="M190.5,76.3c0.3,0.6,0.4,1.2,0.4,1.9c0,0.7-0.3,1.4-0.9,1.8c-0.3,0.2-0.6,0.4-0.9,0.5
			c-0.3,0.1-0.8,0.1-1.1-0.2c-0.6-0.6-0.5-1.4-0.6-2c0-0.7,0.2-1.3,0.4-1.9c0.1-0.3,0.2-0.6,0.5-0.9c0.1-0.1,0.2-0.2,0.4-0.2
			c0.2,0.1,0.2,0.1,0.3,0.2c0.1,0.1,0.2,0.3,0.3,0.4c0.4,0.6,0.7,1.2,0.6,1.9c0,0.2-0.1,0.3-0.2,0.5c-0.1,0.1-0.1,0.1-0.3,0.2
			c-0.1,0-0.2-0.1-0.3-0.1c-0.2-0.3-0.3-0.6-0.4-0.9c0.1,0.3,0.3,0.6,0.5,0.8c0.2,0.2,0.4-0.2,0.4-0.4c0-0.6-0.2-1.2-0.6-1.6
			c-0.1-0.1-0.2-0.2-0.3-0.3c0,0-0.1-0.1-0.1-0.1c0.1,0,0,0,0,0c-0.1,0.2-0.3,0.5-0.3,0.8c-0.2,0.6-0.3,1.2-0.3,1.8
			c0,0.6,0,1.3,0.4,1.6c0.3,0.3,1,0.1,1.4-0.2C190.7,79,190.8,77.5,190.5,76.3z"/>
		<path class="st0" d="M174.6,77.6c0.1,1.9,1,3.6,2.3,4.9c1,1,1.7,0.4,1.3-1.1c-0.7-2.8-1.9-3.1-1.9-3.1s3.5,1.2,3-0.9
			c-0.5-2.1-3-1.2-3-1.2s4.5-2.3,3-3.4c-1.5-1.2-3.1,0-4.1,1.9C174.7,75.6,174.5,76.4,174.6,77.6z"/>
	</g>
	<path class="st0" d="M137.9,74.9c1.6-1.8,3.4-3.5,5.2-5.1c1.8-1.6,3.7-3.1,5.8-4.4c-1.6,1.9-3.4,3.5-5.2,5.1
		C141.8,72.1,139.9,73.6,137.9,74.9c3.5-1.4,17.1-7.3,12.4-12.1c-2.4-2.4-13.2,12.4-13.2,12.4S137.4,75.1,137.9,74.9z"/>
</g>
</svg>
