<?xml version="1.0" encoding="utf-8"?>
<!-- Generator: Adobe Illustrator 24.0.0, SVG Export Plug-In . SVG Version: 6.00 Build 0)  -->
<svg version="1.1" id="Layer_1" xmlns="http://www.w3.org/2000/svg" xmlns:xlink="http://www.w3.org/1999/xlink" x="0px" y="0px"
	 viewBox="0 0 74 5.6" style="enable-background:new 0 0 74 5.6;" xml:space="preserve">
<style type="text/css">
	.st0{fill:#D8C589;}
</style>
<g>
	<g>
		<path class="st0" d="M37,4.5C37,4.5,36.9,4.5,37,4.5L37,4.5c-0.4-0.3-1-1-1.8-1.5c-1,0.7-1.8,1-2.6,1c0,0,0,0,0,0
			c-0.7,0-1.1-0.6-1.1-1.1c0-0.5,0.3-1.1,1.1-1.1c0.8,0,1.7,0.3,2.7,1c0.8-0.6,1.5-1.3,1.7-1.6c0,0,0.1,0,0.1,0
			c0.2,0.3,0.9,1,1.7,1.6c1-0.7,1.9-1,2.7-1c0.7,0,1.1,0.6,1.1,1.1c0,0.5-0.4,1.1-1.1,1.1c0,0,0,0,0,0c-0.8,0-1.6-0.4-2.6-1
			C38,3.5,37.3,4.2,37,4.5C37,4.5,37,4.5,37,4.5z M36.9,4.3L36.9,4.3L36.9,4.3z M35.4,2.8C36.1,3.4,36.7,4,37,4.3
			c0.3-0.3,0.9-0.9,1.6-1.4c-0.7-0.6-1.4-1.2-1.6-1.5C36.7,1.7,36.1,2.3,35.4,2.8z M39,2.8c0.9,0.6,1.7,1,2.4,1c0,0,0,0,0,0
			c0.6,0,0.9-0.5,0.9-0.9c0-0.4-0.3-0.9-0.9-0.9C40.7,1.9,39.9,2.2,39,2.8z M32.6,1.9C32.6,1.9,32.6,1.9,32.6,1.9
			c-0.7,0-1,0.5-1,0.9c0,0.4,0.3,0.9,0.9,0.9c0,0,0,0,0,0c0.7,0,1.5-0.3,2.4-1C34.1,2.2,33.3,1.9,32.6,1.9z"/>
	</g>
	<g>
		<g>
			<path class="st0" d="M59.4,2.9h-17c-0.1,0-0.1,0-0.1-0.1c0-0.1,0-0.1,0.1-0.1h17C59.5,2.7,59.5,2.8,59.4,2.9
				C59.5,2.9,59.5,2.9,59.4,2.9z"/>
		</g>
		<g>
			<path class="st0" d="M60.5,3.9C60.4,3.9,60.4,3.9,60.5,3.9l-1.1-1.1c0,0,0,0,0-0.1s0-0.1,0-0.1l1-1c0,0,0.1,0,0.1,0l1,1
				c0,0,0,0,0,0.1s0,0.1,0,0.1L60.5,3.9C60.5,3.9,60.5,3.9,60.5,3.9z M59.6,2.8l0.9,0.9l0.9-0.9l-0.9-0.9L59.6,2.8z"/>
		</g>
		<g>
			<path class="st0" d="M58.4,2.9C58.3,2.9,58.3,2.9,58.4,2.9c-0.1-0.1-0.1-0.1-0.1-0.2L60.1,1c0,0,0.1,0,0.1,0c0,0,0,0.1,0,0.1
				L58.4,2.9C58.4,2.9,58.4,2.9,58.4,2.9z"/>
		</g>
		<g>
			<path class="st0" d="M60.1,4.7C60.1,4.7,60.1,4.7,60.1,4.7l-1.8-1.8c0,0,0-0.1,0-0.1c0,0,0.1,0,0.1,0l1.8,1.8
				C60.2,4.5,60.2,4.6,60.1,4.7C60.2,4.7,60.2,4.7,60.1,4.7z"/>
		</g>
	</g>
	<g>
		<g>
			<path class="st0" d="M31.6,2.9h-17c-0.1,0-0.1,0-0.1-0.1c0-0.1,0-0.1,0.1-0.1h17C31.6,2.7,31.7,2.8,31.6,2.9
				C31.7,2.9,31.6,2.9,31.6,2.9z"/>
		</g>
		<g>
			<path class="st0" d="M13.5,3.9C13.5,3.9,13.5,3.9,13.5,3.9l-1.1-1.1c0,0,0,0,0-0.1s0-0.1,0-0.1l1-1c0,0,0.1,0,0.1,0l1,1
				c0,0,0,0,0,0.1s0,0.1,0,0.1L13.5,3.9C13.6,3.9,13.5,3.9,13.5,3.9z M12.6,2.8l0.9,0.9l0.9-0.9l-0.9-0.9L12.6,2.8z"/>
		</g>
		<g>
			<path class="st0" d="M15.6,2.9C15.6,2.9,15.6,2.9,15.6,2.9l-1.8-1.8c0,0,0-0.1,0-0.1c0,0,0.1,0,0.1,0l1.8,1.8
				C15.7,2.8,15.7,2.8,15.6,2.9C15.7,2.9,15.6,2.9,15.6,2.9z"/>
		</g>
		<g>
			<path class="st0" d="M13.8,4.7C13.8,4.7,13.8,4.7,13.8,4.7c-0.1-0.1-0.1-0.1-0.1-0.2l1.8-1.8c0,0,0.1,0,0.1,0c0,0,0,0.1,0,0.1
				L13.8,4.7C13.9,4.7,13.9,4.7,13.8,4.7z"/>
		</g>
	</g>
	<g>
		<path class="st0" d="M38.6,4.5C38.6,4.5,38.6,4.5,38.6,4.5l-0.9-0.8c0,0,0-0.1,0-0.1c0,0,0.1,0,0.1,0l0.8,0.8
			C38.7,4.4,38.7,4.5,38.6,4.5C38.7,4.5,38.6,4.5,38.6,4.5z"/>
	</g>
	<g>
		<path class="st0" d="M36.2,2.1C36.2,2.1,36.1,2.1,36.2,2.1l-0.8-0.7c0,0,0-0.1,0-0.1c0,0,0.1,0,0.1,0l0.7,0.7
			C36.3,2,36.3,2,36.2,2.1C36.2,2.1,36.2,2.1,36.2,2.1z"/>
	</g>
	<g>
		<path class="st0" d="M35.4,4.5C35.3,4.5,35.3,4.5,35.4,4.5c-0.1-0.1-0.1-0.1-0.1-0.2l0.8-0.8c0,0,0.1,0,0.1,0c0,0,0,0.1,0,0.1
			L35.4,4.5C35.4,4.5,35.4,4.5,35.4,4.5z"/>
	</g>
	<g>
		<path class="st0" d="M37.8,2.1C37.8,2.1,37.7,2.1,37.8,2.1C37.7,2,37.7,2,37.7,1.9l0.7-0.7c0,0,0.1,0,0.1,0c0,0,0,0.1,0,0.1
			L37.8,2.1C37.8,2.1,37.8,2.1,37.8,2.1z"/>
	</g>
</g>
</svg>
